<svg xmlns="http://www.w3.org/2000/svg" width="25.204" height="27.383" viewBox="0 0 25.204 27.383">
  <g id="doctor" transform="translate(-20.367)">
    <g id="Group_28" data-name="Group 28" transform="translate(20.367)">
      <path id="Path_23" data-name="Path 23" d="M44.693,2.522,41.609,1.446V1.052a1.052,1.052,0,1,0-2.1,0v2.76a1.052,1.052,0,1,0,2.1,0V3.674l1.859.648V5.2a7.412,7.412,0,1,1-14.824,0V4.305l1.849-.645v.16a1.052,1.052,0,0,0,2.1,0V1.06a1.052,1.052,0,0,0-2.1,0v.372L27.246,2.565l-.023.009-.062.025-.039.019-.051.027-.044.027-.04.026-.047.035-.032.027-.045.041-.029.029-.039.043-.029.035-.032.042-.029.043-.024.04q-.014.025-.027.05l-.018.038c-.008.018-.016.036-.023.055l-.015.04c-.006.018-.012.036-.017.055s-.008.031-.012.047-.008.033-.011.05-.006.038-.009.057,0,.028,0,.042,0,.045,0,.067,0,.016,0,.024V5.2a9.529,9.529,0,0,0,8.482,9.459v5.671a4.951,4.951,0,0,1-9.844.759,3.7,3.7,0,1,0-2.117.034,7.055,7.055,0,0,0,14.064-.793V14.654A9.529,9.529,0,0,0,45.572,5.2V3.558A1.051,1.051,0,0,0,44.693,2.522ZM24.062,19.157a1.592,1.592,0,1,1,1.592-1.592A1.594,1.594,0,0,1,24.062,19.157Z" transform="translate(-20.367)" fill="#fff"/>
    </g>
  </g>
</svg>
