<svg xmlns="http://www.w3.org/2000/svg" width="22.505" height="22.5" viewBox="0 0 22.505 22.5">
  <g id="phone" transform="translate(-239.352 -191.813)">
    <g id="Group_41" data-name="Group 41" transform="translate(239.352 191.813)">
      <path id="Path_45" data-name="Path 45" d="M139.971,136.776l-1.831,1.1a3.023,3.023,0,0,0-1.377,1.792c-.689,2.514-.2,6.824,6.055,13.077,4.952,4.951,8.684,6.289,11.272,6.289a6.819,6.819,0,0,0,1.8-.235,3.022,3.022,0,0,0,1.79-1.377l1.1-1.83a1.712,1.712,0,0,0-.519-2.31l-4.383-2.918a1.725,1.725,0,0,0-2.306.375l-1.274,1.638a.1.1,0,0,1-.133.031l-.241-.134a19.929,19.929,0,0,1-6.642-6.642l-.134-.246a.1.1,0,0,1,.031-.133l1.638-1.274a1.723,1.723,0,0,0,.374-2.305l-2.917-4.376A1.715,1.715,0,0,0,139.971,136.776Zm.972,1.41,1.586,2.38,1.331,1.991a.111.111,0,0,1-.023.147l-1.638,1.274a1.7,1.7,0,0,0-.448,2.183l.127.233a21.479,21.479,0,0,0,7.284,7.284l.232.127a1.7,1.7,0,0,0,2.184-.448l1.274-1.638A.11.11,0,0,1,153,151.7l4.375,2.916a.109.109,0,0,1,.033.147l-1.1,1.829a1.423,1.423,0,0,1-.837.654c-1.724.474-5.508.371-11.516-5.638s-6.114-9.794-5.641-11.516a1.423,1.423,0,0,1,.654-.837l1.829-1.1a.1.1,0,0,1,.056-.016A.109.109,0,0,1,140.943,138.186Z" transform="translate(-136.528 -136.531)" fill="#2858c7"/>
    </g>
  </g>
</svg>
