<svg xmlns="http://www.w3.org/2000/svg" width="25.6" height="24" viewBox="0 0 25.6 24">
  <g id="bus" transform="translate(0 -16)">
    <g id="Group_43" data-name="Group 43" transform="translate(0 16)">
      <g id="Group_42" data-name="Group 42">
        <path id="Path_46" data-name="Path 46" d="M343.466,325.333a2.133,2.133,0,1,0,2.133,2.133A2.133,2.133,0,0,0,343.466,325.333Zm0,3.2a1.067,1.067,0,1,1,1.067-1.067A1.067,1.067,0,0,1,343.466,328.533Z" transform="translate(-324.266 -309.866)" fill="#2858c7"/>
        <path id="Path_47" data-name="Path 47" d="M87.466,325.333a2.133,2.133,0,1,0,2.133,2.133A2.133,2.133,0,0,0,87.466,325.333Zm0,3.2a1.067,1.067,0,1,1,1.067-1.067A1.067,1.067,0,0,1,87.466,328.533Z" transform="translate(-81.066 -309.866)" fill="#2858c7"/>
        <path id="Path_48" data-name="Path 48" d="M100.246,69.333H87.466a1.979,1.979,0,0,0-2.133,2.133v8A2.063,2.063,0,0,0,87.466,81.6h12.8a2.362,2.362,0,0,0,2.133-2.133v-7.98A2.156,2.156,0,0,0,100.246,69.333Zm1.087,10.133c0,.612-.817,1.067-1.067,1.067h-12.8A.99.99,0,0,1,86.4,79.466v-8c0-.738.329-1.067,1.067-1.067h12.78a1.088,1.088,0,0,1,1.087,1.087v7.98Z" transform="translate(-81.066 -66.666)" fill="#2858c7"/>
        <path id="Path_49" data-name="Path 49" d="M24,21.333h-.533v-1.6A3.738,3.738,0,0,0,19.733,16H5.867a3.738,3.738,0,0,0-3.733,3.733v1.6H1.6a1.6,1.6,0,0,0-1.6,1.6v3.2A1.067,1.067,0,0,0,1.067,27.2H2.133v8.533A2.118,2.118,0,0,0,2.7,37.17a.521.521,0,0,0-.033.164v1.6C2.667,39.488,2.8,40,3.733,40H6.4c1.067,0,1.067-.734,1.067-1.087V37.867H18.133v1.046c0,.353,0,1.087,1.067,1.087h2.667c1.067,0,1.067-.734,1.067-1.087V37.333a.521.521,0,0,0-.033-.164,2.118,2.118,0,0,0,.566-1.436V27.2h1.067A1.067,1.067,0,0,0,25.6,26.133v-3.2A1.6,1.6,0,0,0,24,21.333Zm-21.867,4.8H1.067v-3.2A.533.533,0,0,1,1.6,22.4h.533ZM6.4,38.913v.021H3.733V37.791a2.109,2.109,0,0,0,.533.076H6.4Zm15.467.021H19.2V37.867h2.133a2.109,2.109,0,0,0,.533-.076v1.142Zm.533-3.2A1.067,1.067,0,0,1,21.333,36.8H4.267A1.067,1.067,0,0,1,3.2,35.733v-16a2.67,2.67,0,0,1,2.667-2.667H19.733A2.67,2.67,0,0,1,22.4,19.733v16Zm2.133-9.6H23.467V22.4H24a.533.533,0,0,1,.533.533Z" transform="translate(0 -16)" fill="#2858c7"/>
      </g>
    </g>
  </g>
</svg>
