<svg xmlns="http://www.w3.org/2000/svg" width="97.614" height="99.535" viewBox="0 0 97.614 99.535">
  <g id="Group_87" data-name="Group 87" transform="translate(-389.428 185.472)">
    <g id="Group_32" data-name="Group 32" transform="translate(389.723 -185.222)">
      <path id="Path_24" data-name="Path 24" d="M414.525-150c-.3,0-.484-.011-.521-.013l-1.281-.08,12.145-23.421.319-.108c25.322-8.58,49.124,6.245,49.362,6.4l-.9,1.414c-.23-.145-23.18-14.413-47.611-6.33l-10.594,20.432c1.422-.109,3.609-.52,4.66-1.969,1.876-2.584,7.218-11.647,7.271-11.737l.1-.175,4.4-2.777.4.155c.164.065,16.3,6.347,21.149.836l1.258,1.107c-5.212,5.923-19.936.775-22.621-.232l-3.342,2.11c-.779,1.318-5.457,9.22-7.256,11.7C419.675-150.233,415.913-150,414.525-150Z" transform="translate(-387.049 186.26)" fill="#1eb5af" stroke="#1eb5af" stroke-linecap="round" stroke-width="0.5"/>
      <path id="Path_25" data-name="Path 25" d="M406.5-151.732l18.916-21.728,1.262,1.1-16.346,18.779c2.1-.253,4.867-.88,5.923-2.231l1.319,1.03c-2.214,2.833-8.489,3.012-9.2,3.022Z" transform="translate(-387.772 186.589)" fill="#1eb5af" stroke="#1eb5af" stroke-linecap="round" stroke-width="0.5"/>
      <path id="Path_26" data-name="Path 26" d="M407.046-155.688a26.394,26.394,0,0,1-5.307-.555l-1.964-.443L426.383-173.6l.9,1.413-23.044,14.65c2.591.3,6.926.431,9.372-1.548l1.053,1.3C412.614-156.128,409.631-155.69,407.046-155.688Z" transform="translate(-388.554 186.573)" fill="#1eb5af" stroke="#1eb5af" stroke-linecap="round" stroke-width="0.5"/>
      <path id="Path_27" data-name="Path 27" d="M477.076-149.379c-.079-.08-7.938-8.015-18.271-9.851a16.74,16.74,0,0,1-13.523,6.339l-1.556-.057c-7.918-.3-15.394-.576-19.771,1.978l-1.716,1,.482-1.927c.046-.183,1.188-4.511,7.009-6.882a32.082,32.082,0,0,1,5.226-1.638c-3.354-.785-7.794-1.718-10.06-1.644l-.041-1.674c4.15-.084,14.44,2.668,14.875,2.785l6.647,1.8-6.886-.154a25.324,25.324,0,0,0-9.129,2.076,11.1,11.1,0,0,0-5.024,3.792c4.785-1.7,11.452-1.447,18.451-1.185l1.554.057c7.95.3,12.362-5.985,12.406-6.049l.3-.435.522.081c11.139,1.753,19.36,10.066,19.7,10.419Z" transform="translate(-385.943 187.72)" fill="#1eb5af" stroke="#1eb5af" stroke-linecap="round" stroke-width="0.5"/>
      <path id="Path_28" data-name="Path 28" d="M485.107-145.347a47.984,47.984,0,0,0-46.871-38.2,47.985,47.985,0,0,0-46.873,38.2l-1.64-.336a49.663,49.663,0,0,1,48.512-39.539,49.664,49.664,0,0,1,48.511,39.539Z" transform="translate(-389.723 185.222)" fill="#1eb5af" stroke="#1eb5af" stroke-linecap="round" stroke-width="0.5"/>
    </g>
    <g id="Group_33" data-name="Group 33" transform="translate(389.993 -124.866)">
      <path id="Path_29" data-name="Path 29" d="M433.471-99.986c-18.26,0-32.627-8.949-32.811-9.066l.9-1.413c.23.145,23.179,14.414,47.609,6.33l10.594-20.432c-1.422.109-3.608.52-4.659,1.968-1.876,2.584-7.218,11.648-7.271,11.739l-.1.175-4.4,2.777-.4-.155c-.163-.065-16.3-6.348-21.149-.837l-1.257-1.105c5.213-5.925,19.936-.776,22.621.231l3.342-2.11c.778-1.318,5.456-9.221,7.257-11.7,2.166-2.985,7.24-2.7,7.458-2.685l1.281.081-12.145,23.421-.319.108A51.388,51.388,0,0,1,433.471-99.986Z" transform="translate(-388.722 131.718)" fill="#1eb5af" stroke="#1eb5af" stroke-linecap="round" stroke-width="0.5"/>
      <path id="Path_30" data-name="Path 30" d="M445.34-103.049l-1.265-1.1,16.564-19.12c-2.046.154-4.794.663-5.854,2.019l-1.319-1.031c2.228-2.853,8.384-2.736,9.079-2.714l1.756.057Z" transform="translate(-383.674 131.867)" fill="#1eb5af" stroke="#1eb5af" stroke-linecap="round" stroke-width="0.5"/>
      <path id="Path_31" data-name="Path 31" d="M445.7-104l-.892-1.417,22.654-14.252c-2.485-.407-6.723-.717-9.177,1.268l-1.053-1.3c4.28-3.464,12.315-1.262,12.654-1.166l1.816.51Z" transform="translate(-383.59 132.257)" fill="#1eb5af" stroke="#1eb5af" stroke-linecap="round" stroke-width="0.5"/>
      <path id="Path_32" data-name="Path 32" d="M449.286-113.89c-4.281,0-13.988-2.567-14.406-2.679l-6.782-1.8,7.017.157a25.21,25.21,0,0,0,9.129-2.075,11.117,11.117,0,0,0,5.024-3.792c-4.783,1.7-11.447,1.447-18.444,1.185l-1.56-.058a15.2,15.2,0,0,0-12.406,6.048l-.3.439-.524-.083c-11.138-1.754-19.359-10.066-19.7-10.419l1.2-1.17c.079.081,7.938,8.016,18.27,9.852a16.683,16.683,0,0,1,13.525-6.34l1.562.058c7.915.3,15.389.575,19.764-1.978l1.716-1-.481,1.927c-.046.183-1.189,4.51-7.01,6.882a32.058,32.058,0,0,1-5.175,1.625c3.274.748,7.53,1.624,9.787,1.548l.041,1.674Z" transform="translate(-389.225 131.502)" fill="#1eb5af" stroke="#1eb5af" stroke-linecap="round" stroke-width="0.5"/>
      <path id="Path_33" data-name="Path 33" d="M438.207-92.473a49.278,49.278,0,0,1-48.242-38.3l1.631-.378a47.611,47.611,0,0,0,46.611,37,47.611,47.611,0,0,0,46.61-37l1.631.378A49.277,49.277,0,0,1,438.207-92.473Z" transform="translate(-389.965 131.152)" fill="#1eb5af" stroke="#1eb5af" stroke-linecap="round" stroke-width="0.5"/>
    </g>
    <g id="Group_34" data-name="Group 34" transform="translate(414.949 -148.705)">
      <path id="Path_34" data-name="Path 34" d="M433.888-128.514l-.434-.32c-4.01-2.967-6.128-6.418-6.3-10.258-.309-7,5.974-12.655,6.242-12.892l.589-.524.557.558c4.857,4.858,7,9.564,6.385,13.988-.833,5.936-6.337,9.056-6.57,9.186Zm.049-21.661c-1.485,1.523-5.336,5.98-5.109,11.015.142,3.166,1.881,6.069,5.169,8.635,1.25-.838,4.694-3.5,5.274-7.684C439.786-141.909,437.991-145.932,433.938-150.175Z" transform="translate(-410.599 152.508)" fill="#1eb5af" stroke="#1eb5af" stroke-linecap="round" stroke-width="0.5"/>
      <path id="Path_35" data-name="Path 35" d="M426.144-143.83" transform="translate(-410.715 153.517)" fill="#1eb5af" stroke="#1eb5af" stroke-linecap="round" stroke-width="0.5"/>
      <path id="Path_36" data-name="Path 36" d="M432.84-131.812" transform="translate(-409.937 154.914)" fill="#1eb5af" stroke="#1eb5af" stroke-linecap="round" stroke-width="0.5"/>
      <path id="Path_37" data-name="Path 37" d="M440.271-143.847" transform="translate(-409.073 153.515)" fill="#1eb5af" stroke="#1eb5af" stroke-linecap="round" stroke-width="0.5"/>
      <path id="Path_38" data-name="Path 38" d="M430.9-128.876a12.208,12.208,0,0,1-7.577-2.4c-5.7-4.315-6.165-12.811-6.182-13.171l-.039-.81.81-.064a24.237,24.237,0,0,1,9.55.885l-.537,1.586a21.7,21.7,0,0,0-8.033-.858c.262,2.149,1.337,7.993,5.448,11.1,2.691,2.036,6.255,2.563,10.588,1.563l.189-.044.189.044c4.334,1,7.89.473,10.562-1.567,4.085-3.119,5.1-8.958,5.347-11.1a21.775,21.775,0,0,0-7.988.841l-.53-1.588a24.29,24.29,0,0,1,9.49-.865l.8.063-.032.8c-.015.361-.416,8.856-6.074,13.174-3.047,2.326-7.007,2.969-11.768,1.911A19.5,19.5,0,0,1,430.9-128.876Z" transform="translate(-411.766 153.331)" fill="#1eb5af" stroke="#1eb5af" stroke-linecap="round" stroke-width="0.5"/>
      <path id="Path_39" data-name="Path 39" d="M441.113-127.831a17.054,17.054,0,0,1-8.1-2.106l.787-1.478c9.791,5.206,17.978-1.679,20.219-3.868a28.958,28.958,0,0,0-2.791-1.943l.867-1.431a31.522,31.522,0,0,1,3.695,2.65l.662.546-.561.647C455.811-134.724,449.718-127.831,441.113-127.831Z" transform="translate(-409.917 154.118)" fill="#1eb5af" stroke="#1eb5af" stroke-linecap="round" stroke-width="0.5"/>
      <path id="Path_40" data-name="Path 40" d="M428.268-127.743a18.8,18.8,0,0,1-8.2-2.017,27.167,27.167,0,0,1-7.123-5.022l-.627-.651.7-.575a31.715,31.715,0,0,1,3.693-2.65l.868,1.432a28.53,28.53,0,0,0-2.754,1.914c2.486,2.225,11.488,9.269,20.559,3.914l.851,1.442A15.516,15.516,0,0,1,428.268-127.743Z" transform="translate(-412.322 154.118)" fill="#1eb5af" stroke="#1eb5af" stroke-linecap="round" stroke-width="0.5"/>
    </g>
  </g>
</svg>
