<svg id="visa-pay-logo" xmlns="http://www.w3.org/2000/svg" width="46" height="14.161" viewBox="0 0 46 14.161">
  <g id="Group_18" data-name="Group 18" transform="translate(16.081 0.236)">
    <g id="Group_17" data-name="Group 17">
      <path id="Path_18" data-name="Path 18" d="M19.06,16.8,16.722,30.518h3.739L22.8,16.8Z" transform="translate(-16.722 -16.799)" fill="#0b2440"/>
    </g>
  </g>
  <g id="Group_20" data-name="Group 20" transform="translate(3.714 0.248)">
    <g id="Group_19" data-name="Group 19">
      <path id="Path_19" data-name="Path 19" d="M13.094,16.815,9.432,26.171l-.39-1.413a14.679,14.679,0,0,0-5.179-5.687L7.21,30.512l3.956-.007,5.888-13.693Z" transform="translate(-3.862 -16.812)" fill="#0b2440"/>
    </g>
  </g>
  <g id="Group_22" data-name="Group 22" transform="translate(0 0.118)">
    <g id="Group_21" data-name="Group 21">
      <path id="Path_20" data-name="Path 20" d="M7.474,17.792a1.5,1.5,0,0,0-1.629-1.115H.048L0,16.95c4.511,1.094,7.5,3.731,8.735,6.9Z" transform="translate(0 -16.677)" fill="#0b2440"/>
    </g>
  </g>
  <g id="Group_24" data-name="Group 24" transform="translate(22.16 0)">
    <g id="Group_23" data-name="Group 23">
      <path id="Path_21" data-name="Path 21" d="M30.621,19.42a6.9,6.9,0,0,1,2.8.525l.338.159.506-2.973a9.651,9.651,0,0,0-3.349-.576c-3.695,0-6.3,1.861-6.319,4.527-.024,1.97,1.855,3.071,3.274,3.727,1.457.673,1.945,1.1,1.939,1.7-.012.918-1.162,1.34-2.236,1.34a7.848,7.848,0,0,1-3.521-.718l-.482-.219-.526,3.071a11.842,11.842,0,0,0,4.166.731c3.93,0,6.484-1.839,6.511-4.688.016-1.559-.981-2.748-3.142-3.725-1.308-.637-2.108-1.06-2.1-1.7C28.478,20.029,29.157,19.42,30.621,19.42Z" transform="translate(-23.043 -16.554)" fill="#0b2440"/>
    </g>
  </g>
  <g id="Group_26" data-name="Group 26" transform="translate(32.575 0.251)">
    <g id="Group_25" data-name="Group 25">
      <path id="Path_22" data-name="Path 22" d="M44.273,16.815H41.385a1.86,1.86,0,0,0-1.959,1.139L33.874,30.526H37.8s.64-1.691.786-2.061l4.788.006c.112.479.456,2.055.456,2.055H47.3Zm-4.611,8.842c.308-.788,1.49-3.834,1.49-3.834-.02.038.3-.793.5-1.31L41.9,21.7l.866,3.961Z" transform="translate(-33.874 -16.815)" fill="#0b2440"/>
    </g>
  </g>
</svg>
