<svg id="facebook_1_" data-name="facebook (1)" xmlns="http://www.w3.org/2000/svg" width="29.689" height="29.689" viewBox="0 0 29.689 29.689">
  <path id="Path_68" data-name="Path 68" d="M291.228,508.668q-.185.03-.372.056Q291.042,508.7,291.228,508.668Zm0,0" transform="translate(-273.99 -479.172)" fill="#0b2440"/>
  <path id="Path_69" data-name="Path 69" d="M299.517,507.793l-.177.031Zm0,0" transform="translate(-281.982 -478.348)" fill="#0b2440"/>
  <path id="Path_70" data-name="Path 70" d="M278.046,510.34q-.217.024-.436.043Q277.829,510.365,278.046,510.34Zm0,0" transform="translate(-261.512 -480.747)" fill="#0b2440"/>
  <path id="Path_71" data-name="Path 71" d="M286.655,509.738l-.209.026Zm0,0" transform="translate(-269.836 -480.181)" fill="#0b2440"/>
  <path id="Path_72" data-name="Path 72" d="M306.821,506.41l-.157.033Zm0,0" transform="translate(-288.882 -477.046)" fill="#0b2440"/>
  <path id="Path_73" data-name="Path 73" d="M324.611,502.113l-.126.035Zm0,0" transform="translate(-305.669 -472.998)" fill="#0b2440"/>
  <path id="Path_74" data-name="Path 74" d="M319.2,503.543l-.138.036Zm0,0" transform="translate(-300.558 -474.345)" fill="#0b2440"/>
  <path id="Path_75" data-name="Path 75" d="M312.213,505.254l-.146.033Zm0,0" transform="translate(-293.971 -475.956)" fill="#0b2440"/>
  <path id="Path_76" data-name="Path 76" d="M273.715,511.09l-.235.018Zm0,0" transform="translate(-257.622 -481.454)" fill="#0b2440"/>
  <path id="Path_77" data-name="Path 77" d="M29.689,14.844A14.844,14.844,0,1,0,14.844,29.689c.087,0,.174,0,.261,0V18.13H11.916V14.413h3.189V11.678c0-3.172,1.936-4.9,4.766-4.9a26.253,26.253,0,0,1,2.859.146v3.315H20.779c-1.539,0-1.837.732-1.837,1.805v2.367h3.681l-.48,3.717h-3.2V29.115A14.852,14.852,0,0,0,29.689,14.844Zm0,0" fill="#0b2440"/>
  <path id="Path_78" data-name="Path 78" d="M265.356,511.43q-.232.015-.465.023Q265.124,511.445,265.356,511.43Zm0,0" transform="translate(-249.531 -481.774)" fill="#0b2440"/>
  <path id="Path_79" data-name="Path 79" d="M260.75,511.836l-.246.006Zm0,0" transform="translate(-245.398 -482.157)" fill="#0b2440"/>
</svg>
