<svg id="youtube" xmlns="http://www.w3.org/2000/svg" width="29.75" height="29.75" viewBox="0 0 29.75 29.75">
  <path id="Path_80" data-name="Path 80" d="M224.113,213.613l4.839-2.787-4.839-2.787Zm0,0" transform="translate(-211.091 -195.951)" fill="#0b2440"/>
  <path id="Path_81" data-name="Path 81" d="M14.875,0A14.875,14.875,0,1,0,29.75,14.875,14.877,14.877,0,0,0,14.875,0ZM24.17,14.89a24.551,24.551,0,0,1-.383,4.471A2.329,2.329,0,0,1,22.148,21a56.537,56.537,0,0,1-7.273.383,54.513,54.513,0,0,1-7.273-.4,2.329,2.329,0,0,1-1.639-1.639,24.443,24.443,0,0,1-.383-4.471A24.535,24.535,0,0,1,5.963,10.4,2.376,2.376,0,0,1,7.6,8.75a56.537,56.537,0,0,1,7.273-.383,54.4,54.4,0,0,1,7.273.4A2.329,2.329,0,0,1,23.787,10.4,23.3,23.3,0,0,1,24.17,14.89Zm0,0" fill="#0b2440"/>
</svg>
