<svg xmlns="http://www.w3.org/2000/svg" width="32.456" height="20.874" viewBox="0 0 32.456 20.874">
  <path id="mastercard_1_" data-name="mastercard (1)" d="M22.018,0a10.379,10.379,0,0,0-5.79,1.757,10.436,10.436,0,1,0-5.79,19.116,10.379,10.379,0,0,0,5.79-1.757A10.436,10.436,0,1,0,22.018,0Zm0,18.972a8.54,8.54,0,0,1-7.326-4.159h1.1a.951.951,0,1,0,0-1.9H13.848a8.494,8.494,0,0,1-.27-1.193h3.733a.951.951,0,0,0,0-1.9H13.5a8.472,8.472,0,0,1,.172-1.192h2.113a.951.951,0,1,0,0-1.9H14.333a8.536,8.536,0,1,1,7.685,12.249Zm0,0" fill="#0b2440"/>
</svg>
