<svg id="vk-social-logotype" xmlns="http://www.w3.org/2000/svg" width="29.689" height="29.689" viewBox="0 0 29.689 29.689">
  <path id="Path_64" data-name="Path 64" d="M14.844,0A14.844,14.844,0,1,0,29.689,14.844,14.845,14.845,0,0,0,14.844,0Zm7.53,16.45a28.227,28.227,0,0,1,2.045,2.057,5.828,5.828,0,0,1,.732,1.055c.282.547.027,1.147-.462,1.179H21.648a2.35,2.35,0,0,1-1.937-.789c-.421-.428-.811-.885-1.216-1.328a2.844,2.844,0,0,0-.548-.487.635.635,0,0,0-1.012.246,3.186,3.186,0,0,0-.32,1.42c-.033.717-.249.9-.969.938a7.787,7.787,0,0,1-4.352-.936,9.606,9.606,0,0,1-2.928-2.741A36.943,36.943,0,0,1,4.51,10.192c-.243-.542-.065-.831.532-.843.993-.019,1.985-.017,2.978,0a.875.875,0,0,1,.826.619,18.478,18.478,0,0,0,2.018,3.74,3.2,3.2,0,0,0,.763.838.463.463,0,0,0,.787-.231,2.55,2.55,0,0,0,.175-.785,11.721,11.721,0,0,0-.048-2.749,1.147,1.147,0,0,0-.977-1.049c-.29-.055-.248-.162-.107-.328a1.094,1.094,0,0,1,.934-.464h3.436c.542.106.663.349.737.895l0,3.818c-.006.211.106.837.485.975.3.1.5-.143.686-.336a11.875,11.875,0,0,0,1.937-2.975c.232-.471.432-.959.627-1.447a.74.74,0,0,1,.777-.533l3.309,0a1.721,1.721,0,0,1,.293.018c.558.1.71.335.538.879a8.245,8.245,0,0,1-1.315,2.28c-.553.764-1.142,1.5-1.69,2.269C21.71,15.487,21.75,15.841,22.374,16.45Z" fill="#0b2440"/>
</svg>
