<svg xmlns="http://www.w3.org/2000/svg" width="47" height="47" viewBox="0 0 47 47">
  <g id="Group_77" data-name="Group 77" transform="translate(-154 -2662)">
    <circle id="Ellipse_19" data-name="Ellipse 19" cx="23.5" cy="23.5" r="23.5" transform="translate(154 2662)" fill="#2858c7"/>
    <g id="nose" transform="translate(166.5 2669.578)">
      <path id="Path_61" data-name="Path 61" d="M3.309,21.131c-.9,0-2.144-1.693-2.144-4.871,0-2.294,8.244-10.568,13.44-15.245A.582.582,0,0,0,13.825.15C12.41,1.423,0,12.7,0,16.26,0,20.18,1.7,22.3,3.309,22.3c1.7,0,5.552.81,5.552,2.144a5.407,5.407,0,0,1-1.109,2.547c-.677,1.062-1.378,2.16-.875,3.167a.582.582,0,1,0,1.042-.521c-.208-.416.312-1.232.815-2.02a6.275,6.275,0,0,0,1.291-3.173C10.026,21.706,4.414,21.131,3.309,21.131Zm0,0" transform="translate(0 0)" fill="#fff" stroke="#fff" stroke-width="0.5"/>
      <path id="Path_62" data-name="Path 62" d="M142.878,298.87a.584.584,0,0,0-.1-.628c-2.33-2.561-3.738-3.438-4.7-2.934-1.035.539-.727,2.313-.607,2.844a.582.582,0,0,0,1.136-.255,2.7,2.7,0,0,1,0-1.555c.009,0,.538-.131,2.383,1.709H139.88a.582.582,0,1,0,0,1.165h2.465A.583.583,0,0,0,142.878,298.87Zm0,0" transform="translate(-129.153 -277.603)" fill="#fff" stroke="#fff" stroke-width="0.5"/>
      <path id="Path_63" data-name="Path 63" d="M215.839,292.43a.582.582,0,0,0-1.113.342c.85,2.762.811,4.736-.112,5.709-1.129,1.189-3.32.66-3.356.65a.582.582,0,0,0-.288,1.129,6.285,6.285,0,0,0,1.44.162,4.121,4.121,0,0,0,3.044-1.134C216.706,297.975,216.836,295.667,215.839,292.43Zm0,0" transform="translate(-198.001 -274.636)" fill="#fff" stroke="#fff" stroke-width="0.5"/>
    </g>
  </g>
</svg>
