<svg xmlns="http://www.w3.org/2000/svg" xmlns:xlink="http://www.w3.org/1999/xlink" width="47" height="47" viewBox="0 0 47 47">
  <defs>
    <clipPath id="clip-path">
      <circle id="Ellipse_23" data-name="Ellipse 23" cx="23.5" cy="23.5" r="23.5" transform="translate(154 2858)" fill="none" stroke="#2858c7" stroke-width="1"/>
    </clipPath>
  </defs>
  <g id="Group_76" data-name="Group 76" transform="translate(-154 -2858)">
    <circle id="Ellipse_20" data-name="Ellipse 20" cx="23.5" cy="23.5" r="23.5" transform="translate(154 2858)" fill="#2858c7"/>
    <g id="Mask_Group_1" data-name="Mask Group 1" clip-path="url(#clip-path)">
      <g id="outline" transform="translate(145 2856)">
        <path id="Path_58" data-name="Path 58" d="M40.368,36.1l-.753,1.531a5.233,5.233,0,0,0,2.151.466,4.468,4.468,0,0,0,2.012-.466l-.761-1.522a3.282,3.282,0,0,1-2.649-.009Z" transform="translate(-4.578 -5.099)" fill="#fff"/>
        <path id="Path_59" data-name="Path 59" d="M46.738,22.663,46.2,21.047a4.619,4.619,0,0,0-3.133,4.209h1.7a2.924,2.924,0,0,1,1.975-2.593Z" transform="translate(-5.093 -2.848)" fill="#fff"/>
        <path id="Path_60" data-name="Path 60" d="M45.571,52.246c.069-.87,1.7-21.335,1.7-24.732a14.534,14.534,0,0,1,.812-4.219c.913-3.052,1.859-6.209-1.853-10.775C42.789,8.284,36.875,2.315,36.819,2.252a.85.85,0,0,0-.6-.252H9.85a.85.85,0,0,0-.765,1.221c.071.144,1.79,3.611,8.675,10.439,1.4,1.394,2.744,2.641,3.928,3.742,3.79,3.527,6.294,5.856,6.032,8.324-.9,8.512,1.6,25.844,1.705,26.578a.85.85,0,0,0,.838.725H44.72A.85.85,0,0,0,45.571,52.246ZM28.262,3.7,38.874,14.312a3.171,3.171,0,0,0-1.755,3h1.7a1.6,1.6,0,0,1,1.7-1.7,3.7,3.7,0,0,1,2.807.98,2.95,2.95,0,0,1,.756,2.046c0,1.151-.555,2.077-1.014,2.077a2.466,2.466,0,0,0-2.551,2.551c0,2.3-2.381,2.551-3.4,2.551s-3.4-.248-3.4-2.551a3.379,3.379,0,0,1,1-2.405.85.85,0,0,0,0-1.2L18.736,3.7ZM41.1,31.721a3.912,3.912,0,0,0-.636,2.6v17.01H34.514V36.716a7.583,7.583,0,0,1,1.754,3.556h1.7c0-2.736-3.883-6.763-4.556-7.439a3.062,3.062,0,0,1-.6-1.916,1.7,1.7,0,0,1,2.153-1.641,7.9,7.9,0,0,0,4.2,0,1.7,1.7,0,0,1,2.153,1.641,1.068,1.068,0,0,1-.211.8Zm1.065,19.607V34.318c0-1.14.164-1.379.34-1.631a2.684,2.684,0,0,0,.51-1.771,3.4,3.4,0,0,0-4.306-3.28,6.311,6.311,0,0,1-3.295,0,3.4,3.4,0,0,0-4.306,3.28,4.885,4.885,0,0,0,.993,3.023,3.215,3.215,0,0,1,.708,2.079V51.328H31c-.471-3.429-2.375-18.089-1.6-25.425.352-3.313-2.4-5.868-6.564-9.747-1.174-1.092-2.5-2.329-3.888-3.7A60.894,60.894,0,0,1,11.368,3.7h4.961l16.63,16.6a5.065,5.065,0,0,0-.943,2.957c0,2.584,2,4.252,5.1,4.252s5.1-1.669,5.1-4.252a.774.774,0,0,1,.85-.85c1.522,0,2.715-1.659,2.715-3.778a4.642,4.642,0,0,0-1.22-3.213,5.165,5.165,0,0,0-3.686-1.506L30.668,3.7h5.188c1.154,1.175,6.061,6.209,9.052,9.891,3.147,3.871,2.4,6.347,1.544,9.215a15.873,15.873,0,0,0-.88,4.707c0,2.961-1.329,19.944-1.636,23.813Z" fill="#fff"/>
        <rect id="Rectangle_109" data-name="Rectangle 109" width="3" height="2" transform="translate(33 14)" fill="#fff"/>
        <rect id="Rectangle_110" data-name="Rectangle 110" width="2" height="3" transform="translate(36 41)" fill="#fff"/>
      </g>
    </g>
  </g>
</svg>
