<svg xmlns="http://www.w3.org/2000/svg" width="47" height="47" viewBox="0 0 47 47">
  <g id="Group_78" data-name="Group 78" transform="translate(-668 -2531)">
    <circle id="Ellipse_18" data-name="Ellipse 18" cx="23.5" cy="23.5" r="23.5" transform="translate(668 2531)" fill="#2858c7"/>
    <path id="pacifier" d="M25.277,11.086a6.5,6.5,0,0,0-.066-9.255,6.5,6.5,0,0,0-11.01,4.2q-.02.285-.061.564A15.747,15.747,0,0,0,9.99,4.525c-2.34-.7-3.567-.105-4.184.512-1.048,1.048-1.094,2.907-.134,5.246a8.626,8.626,0,0,0-3.12,2.007A8.722,8.722,0,1,0,16.89,21.5a8.051,8.051,0,0,0,2.986.688,3.079,3.079,0,0,0,2.26-.822c.618-.618,1.209-1.848.509-4.2a15.781,15.781,0,0,0-2.072-4.149q.258-.033.52-.05a6.49,6.49,0,0,0,4.184-1.89ZM13.758,23.5a7.129,7.129,0,1,1-7.4-11.771c.281.518.6,1.043.949,1.566a5.294,5.294,0,0,0-2.376,1.38,5.351,5.351,0,1,0,8.946,5.191c.523.351,1.048.669,1.566.95A7.152,7.152,0,0,1,13.758,23.5ZM8.342,14.713A24.617,24.617,0,0,0,10.279,16.9a24.613,24.613,0,0,0,2.178,1.934,3.758,3.758,0,1,1-6.4-3.03,3.719,3.719,0,0,1,2.214-1.075c.023,0,.045-.007.068-.011ZM21.118,17.63c.366,1.227.326,2.18-.109,2.614-.564.564-1.927.463-3.648-.268a20.061,20.061,0,0,1-5.956-4.206A20.064,20.064,0,0,1,7.2,9.813c-.732-1.721-.832-3.085-.268-3.649.434-.434,1.383-.474,2.6-.111a14.807,14.807,0,0,1,4.18,2.188,7.256,7.256,0,0,1-1.644,2.555l-.173.173a.8.8,0,0,0,0,1.126L15,15.2a.8.8,0,0,0,1.127,0l.038-.038a7.445,7.445,0,0,1,2.743-1.733,14.877,14.877,0,0,1,2.207,4.2Zm-5.53-4.1-2.012-2.013A9.094,9.094,0,0,0,15.79,6.143a4.89,4.89,0,0,1,4.8-4.549,4.9,4.9,0,0,1,.4,9.793A9.253,9.253,0,0,0,15.589,13.531Z" transform="translate(678.499 2541.32)" fill="#fff"/>
  </g>
</svg>
