<svg xmlns="http://www.w3.org/2000/svg" width="47" height="47" viewBox="0 0 47 47">
  <g id="Group_73" data-name="Group 73" transform="translate(-668 -2858)">
    <circle id="Ellipse_14" data-name="Ellipse 14" cx="23.5" cy="23.5" r="23.5" transform="translate(668 2858)" fill="#2858c7"/>
    <path id="chemistry" d="M23.349,25.494,16.529,13.219V1.777h.889a.889.889,0,0,0,0-1.777H6.753a.889.889,0,0,0,0,1.777h.889V13.222L.906,25.511a3.259,3.259,0,0,0,2.858,4.825H20.5A3.258,3.258,0,0,0,23.349,25.494ZM20.5,28.558H3.763a1.481,1.481,0,0,1-1.3-2.193c7.4-13.5,6.955-12.589,6.955-12.915V1.777h5.332v1.9h-.889a.889.889,0,0,0,0,1.777h.889V7.228H12.086a.889.889,0,0,0,0,1.777h2.666v1.777h-.889a.889.889,0,1,0,0,1.777h.889v.889c0,.33-.449-.577,7.043,12.908A1.481,1.481,0,0,1,20.5,28.558Zm0,0" transform="translate(680 2865)" fill="#fff"/>
  </g>
</svg>
