<svg xmlns="http://www.w3.org/2000/svg" width="47" height="47" viewBox="0 0 47 47">
  <g id="Group_69" data-name="Group 69" transform="translate(-668 -2662)">
    <circle id="Ellipse_17" data-name="Ellipse 17" cx="23.5" cy="23.5" r="23.5" transform="translate(668 2662)" fill="#2858c7"/>
    <path id="Rate_2_" d="M44.585,22.152H44.58l-7.436.055a.707.707,0,0,0-.664.479l-2.439,7.15L31.067,10.7a.709.709,0,0,0-.678-.6.726.726,0,0,0-.713.556L25.035,31.894,21.716,18.816a.718.718,0,0,0-.708-.534.708.708,0,0,0-.674.576L17.027,36.394,13.452,9.613A.708.708,0,0,0,12.79,9a.719.719,0,0,0-.726.534L8.716,22.856H.708a.708.708,0,0,0,0,1.415h8.56a.707.707,0,0,0,.686-.535l2.583-10.277L16.206,40.94a.708.708,0,0,0,.683.614h.019a.707.707,0,0,0,.695-.576l3.53-18.709L24.4,35.148a.682.682,0,0,0,.7.534.708.708,0,0,0,.68-.556L30.25,14.663l2.833,18.229a.708.708,0,0,0,.637.6.693.693,0,0,0,.732-.476l3.2-9.394,6.933-.051a.708.708,0,0,0-.005-1.415Z" transform="translate(669 2662)" fill="#fff"/>
  </g>
</svg>
