<svg xmlns="http://www.w3.org/2000/svg" width="47" height="47" viewBox="0 0 47 47">
  <g id="Group_74" data-name="Group 74" transform="translate(-668 -2791)">
    <circle id="Ellipse_16" data-name="Ellipse 16" cx="23.5" cy="23.5" r="23.5" transform="translate(668 2791)" fill="#2858c7"/>
    <path id="Tooth_2_" d="M17.554,1.29A4.217,4.217,0,0,0,14.123.019h-.029a3.961,3.961,0,0,0-1.181.374,2.927,2.927,0,0,1-1.1.328,2.908,2.908,0,0,1-1.1-.328A3.946,3.946,0,0,0,9.539.021,4.127,4.127,0,0,0,5.032,4.652c.668,5.78,1.14,9.332,1.4,10.557a1.475,1.475,0,0,0,1,1.076.724.724,0,0,0,.118.01.874.874,0,0,0,.755-.508,15.514,15.514,0,0,0,1-2.319c.673-1.806,1.436-3.853,2.653-3.873,1.209.024,1.821,1.745,2.414,3.409a12.732,12.732,0,0,0,1.01,2.362,1.094,1.094,0,0,0,1.125.556.992.992,0,0,0,.812-.71c.336-1.495.942-6.5,1.391-10.428A4.21,4.21,0,0,0,17.554,1.29Zm.652,3.429a.024.024,0,0,0,0,0c-.448,3.92-1.051,8.9-1.382,10.376a.49.49,0,0,1-.4.319.581.581,0,0,1-.608-.323,12.454,12.454,0,0,1-.963-2.264c-.65-1.827-1.323-3.716-2.892-3.747-1.575.025-2.4,2.245-3.132,4.2a15.23,15.23,0,0,1-.957,2.237c-.169.286-.307.263-.353.256a.984.984,0,0,1-.587-.68c-.255-1.193-.738-4.827-1.4-10.513A3.619,3.619,0,0,1,9.12.509a3.663,3.663,0,0,1,.368.018A3.512,3.512,0,0,1,10.506.86c.158.069.318.139.481.2a.242.242,0,0,0,.037.029l2.539,1.283a.255.255,0,0,0,.23-.455L12.3,1.165a5.377,5.377,0,0,0,.815-.3,3.658,3.658,0,0,1,.99-.331.231.231,0,0,0,.037,0,3.726,3.726,0,0,1,4.061,4.19Z" transform="translate(679.503 2806.001)" fill="#fff" stroke="#fff" stroke-width="1"/>
    <g id="Ellipse_22" data-name="Ellipse 22" transform="translate(675 2798)" fill="none" stroke="#fff" stroke-width="1.5">
      <circle cx="16.5" cy="16.5" r="16.5" stroke="none"/>
      <circle cx="16.5" cy="16.5" r="15.75" fill="none"/>
    </g>
  </g>
</svg>
