<svg xmlns="http://www.w3.org/2000/svg" width="47" height="47" viewBox="0 0 47 47">
  <g id="Group_70" data-name="Group 70" transform="translate(-154 -2531)">
    <circle id="Ellipse_8" data-name="Ellipse 8" cx="23.5" cy="23.5" r="23.5" transform="translate(154 2531)" fill="#2858c7"/>
    <path id="Stethoscope_2_" d="M32.958,23.843a2.109,2.109,0,1,0-2.723,2.007c-.057,1.841-.263,4.88-1.747,5.892a5.547,5.547,0,0,1-6.427-.153,4.427,4.427,0,0,1-1.291-5.056,14.236,14.236,0,0,1,1.358-2.371,7.115,7.115,0,0,0,1.11-2.151,22.191,22.191,0,0,0,.6-5.326c1.725-1.115,5.317-3.676,6.678-6.444,1.268-2.409,2.058-5.809,1.115-7.646a2.171,2.171,0,0,0-1.561-1.187V1.245a.527.527,0,0,0-.362-.5L27.536.03a.527.527,0,0,0-.693.5V3.26a.527.527,0,0,0,.693.5L29.7,3.046a.527.527,0,0,0,.362-.5V2.486a1.143,1.143,0,0,1,.623.59c.665,1.295.178,4.226-1.116,6.685-1.241,2.525-4.6,4.93-6.266,6.009-1.663-1.079-5.026-3.485-6.272-6.022-1.353-2.571-1.853-5.058-1.275-6.338a1.66,1.66,0,0,1,.753-.8.522.522,0,0,0,.352.437l2.166.715a.527.527,0,0,0,.693-.5V.531a.527.527,0,0,0-.693-.5L16.861.745a.527.527,0,0,0-.362.5v.219a2.762,2.762,0,0,0-1.7,1.512c-1.08,2.39.724,6.164,1.3,7.25,1.366,2.782,4.96,5.344,6.685,6.458a21.463,21.463,0,0,1-.552,5.026,6.188,6.188,0,0,1-.971,1.858,15.3,15.3,0,0,0-1.447,2.53,5.477,5.477,0,0,0,1.543,6.27,5.839,5.839,0,0,0,3.923,1.378,6.816,6.816,0,0,0,3.808-1.134c1.907-1.3,2.143-4.593,2.207-6.709A2.111,2.111,0,0,0,32.958,23.843ZM29.008,2.164,27.9,2.531V1.26l1.111.367ZM17.554,1.627l1.111-.367V2.531l-1.111-.367ZM31.027,24.879a.517.517,0,0,0-.238-.07.551.551,0,0,0-.215.048,1.051,1.051,0,1,1,.453.023Z" transform="translate(154.042 2537.997)" fill="#fff" stroke="#fff" stroke-width="1"/>
  </g>
</svg>
