<svg xmlns="http://www.w3.org/2000/svg" width="47" height="47" viewBox="0 0 47 47">
  <g id="Group_71" data-name="Group 71" transform="translate(-154 -2792)">
    <circle id="Ellipse_13" data-name="Ellipse 13" cx="23.5" cy="23.5" r="23.5" transform="translate(154 2792)" fill="#2858c7"/>
    <path id="surgical-scissors" d="M29.018,7.37a3.126,3.126,0,0,0-4.4-.021h0L14.53,16.317l.805-2.843L22.585,5.32v0a3.127,3.127,0,1,0-2.233.939c.038,0,.075,0,.113-.005L.123,29.131a.483.483,0,0,0,.681.682L23.684,9.469c0,.038-.005.075-.005.113a3.128,3.128,0,1,0,5.34-2.212Zm-10.2-2.711a2.165,2.165,0,1,1,1.53.633A2.167,2.167,0,0,1,18.823,4.659ZM14.6,14.3l-.74,2.611L6.3,23.63Zm13.737-3.189a2.163,2.163,0,1,1,.634-1.53A2.15,2.15,0,0,1,28.336,11.113Z" transform="translate(162.499 2799.117)" fill="#fff" stroke="#fff" stroke-width="0.5"/>
  </g>
</svg>
