<svg xmlns="http://www.w3.org/2000/svg" width="25.333" height="19" viewBox="0 0 25.333 19">
  <g id="envelope" transform="translate(0 -64)">
    <g id="Group_44" data-name="Group 44" transform="translate(0 64)">
      <path id="Path_52" data-name="Path 52" d="M23.222,64H2.111A2.113,2.113,0,0,0,0,66.111V80.889A2.113,2.113,0,0,0,2.111,83H23.222a2.113,2.113,0,0,0,2.111-2.111V66.111A2.113,2.113,0,0,0,23.222,64ZM2.111,65.056H23.222a1,1,0,0,1,.219.044c-1.828,1.673-7.888,7.217-10.009,9.128a1.059,1.059,0,0,1-1.532,0C9.78,72.317,3.719,66.772,1.891,65.1A1.008,1.008,0,0,1,2.111,65.056ZM1.056,80.889V66.111a1.02,1.02,0,0,1,.059-.292c1.4,1.28,5.628,5.149,8.369,7.642-2.733,2.348-6.963,6.358-8.373,7.7A1.017,1.017,0,0,1,1.056,80.889Zm22.167,1.056H2.111a1.01,1.01,0,0,1-.238-.048c1.457-1.389,5.714-5.422,8.4-7.719l.922.834a2.108,2.108,0,0,0,2.946,0l.922-.835c2.685,2.3,6.941,6.33,8.4,7.719A1.009,1.009,0,0,1,23.222,81.944Zm1.056-1.056a1.019,1.019,0,0,1-.056.275c-1.411-1.345-5.64-5.355-8.373-7.7,2.742-2.493,6.97-6.362,8.369-7.642a1.02,1.02,0,0,1,.059.292Z" transform="translate(0 -64)" fill="#2858c7"/>
    </g>
  </g>
</svg>
