<svg id="pin" xmlns="http://www.w3.org/2000/svg" width="20.489" height="26.288" viewBox="0 0 20.489 26.288">
  <path id="Path_41" data-name="Path 41" d="M79.793,73.313a6.481,6.481,0,1,0,6.48,6.48A6.488,6.488,0,0,0,79.793,73.313Zm0,11.428a4.948,4.948,0,1,1,4.948-4.948A4.953,4.953,0,0,1,79.793,84.741Zm0,0" transform="translate(-69.548 -69.548)" fill="#2858c7"/>
  <path id="Path_42" data-name="Path 42" d="M10.245,0a10.246,10.246,0,0,0-3.3,19.944l3.3,6.343,3.3-6.343a10.339,10.339,0,0,0,4.89-3.548A10.245,10.245,0,0,0,10.245,0Zm2.544,18.579-.308.094-2.236,4.3-2.236-4.3L7.7,18.579a8.712,8.712,0,1,1,5.088,0Zm0,0" fill="#2858c7"/>
</svg>
