<svg id="clock" xmlns="http://www.w3.org/2000/svg" width="26.288" height="26.288" viewBox="0 0 26.288 26.288">
  <path id="Path_50" data-name="Path 50" d="M13.144,26.288A13.144,13.144,0,1,1,26.288,13.144,13.158,13.158,0,0,1,13.144,26.288Zm0-24.645a11.5,11.5,0,1,0,11.5,11.5A11.514,11.514,0,0,0,13.144,1.643Zm0,0" fill="#2858c7"/>
  <path id="Path_51" data-name="Path 51" d="M246.572,116.393a.815.815,0,0,1-.581-.241l-5.75-5.75a.822.822,0,0,1-.241-.58v-7.667a.822.822,0,0,1,1.643,0v7.327l5.51,5.51a.822.822,0,0,1-.581,1.4Zm0,0" transform="translate(-227.678 -96.129)" fill="#2858c7"/>
</svg>
