<svg id="instagram_1_" data-name="instagram (1)" xmlns="http://www.w3.org/2000/svg" width="29.689" height="29.689" viewBox="0 0 29.689 29.689">
  <path id="Path_65" data-name="Path 65" d="M212.683,209.841A2.841,2.841,0,1,1,209.841,207,2.841,2.841,0,0,1,212.683,209.841Zm0,0" transform="translate(-194.997 -194.997)" fill="#0b2440"/>
  <path id="Path_66" data-name="Path 66" d="M149.117,137.449a2.823,2.823,0,0,0-1.618-1.618,4.716,4.716,0,0,0-1.583-.293c-.9-.041-1.169-.05-3.445-.05s-2.546.009-3.445.05a4.719,4.719,0,0,0-1.583.294,2.824,2.824,0,0,0-1.618,1.618,4.717,4.717,0,0,0-.293,1.583c-.041.9-.05,1.168-.05,3.445s.009,2.545.05,3.445a4.716,4.716,0,0,0,.293,1.583,2.823,2.823,0,0,0,1.618,1.618,4.71,4.71,0,0,0,1.583.294c.9.041,1.168.05,3.444.05s2.546-.009,3.444-.05a4.71,4.71,0,0,0,1.583-.294,2.823,2.823,0,0,0,1.618-1.618,4.72,4.72,0,0,0,.294-1.583c.041-.9.05-1.169.05-3.445s-.009-2.546-.05-3.445A4.71,4.71,0,0,0,149.117,137.449Zm-6.645,9.4a4.377,4.377,0,1,1,4.377-4.377A4.377,4.377,0,0,1,142.473,146.853Zm4.55-7.9a1.023,1.023,0,1,1,1.023-1.023A1.023,1.023,0,0,1,147.023,138.949Zm0,0" transform="translate(-127.628 -127.632)" fill="#0b2440"/>
  <path id="Path_67" data-name="Path 67" d="M14.844,0A14.844,14.844,0,1,0,29.689,14.844,14.846,14.846,0,0,0,14.844,0Zm8.473,18.359a6.254,6.254,0,0,1-.4,2.069,4.358,4.358,0,0,1-2.493,2.493,6.258,6.258,0,0,1-2.069.4c-.909.041-1.2.051-3.514.051s-2.605-.01-3.514-.051a6.258,6.258,0,0,1-2.069-.4,4.358,4.358,0,0,1-2.493-2.493,6.252,6.252,0,0,1-.4-2.069c-.042-.909-.052-1.2-.052-3.514s.01-2.605.051-3.514a6.254,6.254,0,0,1,.4-2.069A4.361,4.361,0,0,1,9.261,6.768a6.26,6.26,0,0,1,2.069-.4c.909-.041,1.2-.051,3.514-.051s2.605.01,3.514.052a6.261,6.261,0,0,1,2.069.4,4.36,4.36,0,0,1,2.493,2.493,6.253,6.253,0,0,1,.4,2.069c.041.909.051,1.2.051,3.514S23.359,17.45,23.317,18.359Zm0,0" fill="#0b2440"/>
</svg>
