<svg xmlns="http://www.w3.org/2000/svg" width="29.75" height="29.75" viewBox="0 0 29.75 29.75">
  <path id="twitter_1_" data-name="twitter (1)" d="M14.875,0A14.875,14.875,0,1,0,29.75,14.875,14.877,14.877,0,0,0,14.875,0Zm6.792,11.6q.01.22.01.441a9.648,9.648,0,0,1-9.714,9.714h0A9.664,9.664,0,0,1,6.729,20.22a6.944,6.944,0,0,0,.814.047,6.851,6.851,0,0,0,4.241-1.461,3.418,3.418,0,0,1-3.19-2.371,3.4,3.4,0,0,0,1.542-.059A3.415,3.415,0,0,1,7.4,13.029c0-.015,0-.029,0-.044a3.391,3.391,0,0,0,1.546.427A3.417,3.417,0,0,1,7.887,8.854a9.693,9.693,0,0,0,7.038,3.567,3.416,3.416,0,0,1,5.818-3.114,6.848,6.848,0,0,0,2.168-.829,3.428,3.428,0,0,1-1.5,1.888A6.809,6.809,0,0,0,23.37,9.83,6.938,6.938,0,0,1,21.667,11.6Zm0,0" fill="#0b2440"/>
</svg>
