<svg xmlns="http://www.w3.org/2000/svg" width="22.395" height="22.392" viewBox="0 0 22.395 22.392">
  <path id="pen" d="M19.823.872a3.084,3.084,0,0,0-4.358,0l-1.091,1.1L2.763,13.574l-.025.025c-.006.006-.006.012-.012.012-.012.019-.031.037-.043.055s-.006.006-.006.012-.018.031-.031.049-.006.012-.012.019-.012.031-.019.049-.006.006-.006.012L.033,21.556a.606.606,0,0,0,.148.628.62.62,0,0,0,.438.179.727.727,0,0,0,.2-.031L8.556,19.75c.006,0,.006,0,.012-.006a.223.223,0,0,0,.055-.025.022.022,0,0,0,.013-.006c.018-.012.043-.025.061-.037s.037-.031.056-.043.012-.006.012-.012.019-.012.025-.025l12.7-12.7a3.084,3.084,0,0,0,0-4.357ZM8.359,18.3,4.07,14.012,14.806,3.276,19.1,7.565ZM3.465,15.152,7.213,18.9,1.586,20.773ZM20.624,6.031l-.653.66L15.681,2.4l.66-.659a1.849,1.849,0,0,1,2.613,0L20.63,3.417A1.855,1.855,0,0,1,20.624,6.031Zm0,0" transform="translate(0 0.029)" fill="#fff"/>
</svg>
