<svg xmlns="http://www.w3.org/2000/svg" width="47" height="47" viewBox="0 0 47 47">
  <g id="Group_68" data-name="Group 68" transform="translate(-668 -2599)">
    <circle id="Ellipse_12" data-name="Ellipse 12" cx="23.5" cy="23.5" r="23.5" transform="translate(668 2599)" fill="#2858c7"/>
    <path id="Tooth_2_" d="M25.389,2.1A6.848,6.848,0,0,0,19.818.032l-.047,0a6.432,6.432,0,0,0-1.917.607,4.753,4.753,0,0,1-1.79.532A4.723,4.723,0,0,1,14.276.64a6.408,6.408,0,0,0-1.9-.606A6.7,6.7,0,0,0,5.053,7.555C6.138,16.941,6.9,22.709,7.331,24.7a2.4,2.4,0,0,0,1.628,1.747,1.176,1.176,0,0,0,.192.016,1.42,1.42,0,0,0,1.226-.825,25.2,25.2,0,0,0,1.618-3.766c1.093-2.933,2.331-6.258,4.309-6.289,1.964.04,2.958,2.834,3.92,5.536a20.677,20.677,0,0,0,1.641,3.836,1.776,1.776,0,0,0,1.827.9A1.612,1.612,0,0,0,25.009,24.7c.546-2.428,1.53-10.549,2.259-16.936A6.837,6.837,0,0,0,25.389,2.1Zm1.06,5.568a.038.038,0,0,0,0,.007C25.72,14.038,24.74,22.13,24.2,24.523a.8.8,0,0,1-.649.518.944.944,0,0,1-.987-.524A20.225,20.225,0,0,1,21,20.84c-1.056-2.967-2.148-6.035-4.7-6.086-2.558.041-3.9,3.647-5.086,6.828a24.734,24.734,0,0,1-1.555,3.633c-.275.464-.5.427-.573.415a1.6,1.6,0,0,1-.953-1.1c-.415-1.937-1.2-7.839-2.266-17.072A5.877,5.877,0,0,1,11.692.827a5.949,5.949,0,0,1,.6.03,5.7,5.7,0,0,1,1.654.541c.257.112.516.226.781.324a.393.393,0,0,0,.06.047l4.123,2.084a.414.414,0,0,0,.373-.738L16.863,1.893A8.733,8.733,0,0,0,18.185,1.4,5.941,5.941,0,0,1,19.793.861a.375.375,0,0,0,.06,0,6.051,6.051,0,0,1,6.6,6.8Z" transform="translate(675.503 2609.001)" fill="#fff" stroke="#fff" stroke-width="1"/>
  </g>
</svg>
