<svg xmlns="http://www.w3.org/2000/svg" width="47" height="47" viewBox="0 0 47 47">
  <g id="Group_75" data-name="Group 75" transform="translate(-668 -2727)">
    <circle id="Ellipse_15" data-name="Ellipse 15" cx="23.5" cy="23.5" r="23.5" transform="translate(668 2727)" fill="#2858c7"/>
    <g id="Page-1" transform="translate(679 2738)">
      <path id="Shape" d="M23.375,0H2.125A2.128,2.128,0,0,0,0,2.125v21.25A2.128,2.128,0,0,0,2.125,25.5h21.25A2.128,2.128,0,0,0,25.5,23.375V2.125A2.128,2.128,0,0,0,23.375,0ZM24.65,23.375a1.275,1.275,0,0,1-1.275,1.275H2.125A1.275,1.275,0,0,1,.85,23.375V2.125A1.275,1.275,0,0,1,2.125.85h21.25A1.275,1.275,0,0,1,24.65,2.125Z" fill="#fff" stroke="#fff" stroke-width="0.5"/>
      <path id="Shape-2" data-name="Shape" d="M26.059,23.705a1.266,1.266,0,0,0-.166-1.01L18.708,11.6a1.308,1.308,0,0,0-1.639-.476,4.594,4.594,0,0,1-4.04,0,1.308,1.308,0,0,0-1.639.476L4.205,22.7a1.266,1.266,0,0,0-.166,1.01,1.311,1.311,0,0,0,.643.824,21.806,21.806,0,0,0,20.735,0,1.311,1.311,0,0,0,.643-.824ZM12.1,12.058a.455.455,0,0,1,.383-.207.442.442,0,0,1,.187.042,5.443,5.443,0,0,0,4.752,0,.454.454,0,0,1,.569.165l1.049,1.623a11.021,11.021,0,0,1-3.995.719,11.021,11.021,0,0,1-3.995-.719ZM25.236,23.5a.452.452,0,0,1-.226.287,20.959,20.959,0,0,1-19.921,0,.452.452,0,0,1-.226-.287.425.425,0,0,1,.056-.34l5.662-8.745a11.824,11.824,0,0,0,4.468.841,11.824,11.824,0,0,0,4.468-.841l5.662,8.746a.425.425,0,0,1,.056.34Z" transform="translate(-2.299 -6.327)" fill="#fff" stroke="#fff" stroke-width="0.5"/>
    </g>
  </g>
</svg>
