<svg xmlns="http://www.w3.org/2000/svg" width="47" height="47" viewBox="0 0 47 47">
  <g id="Group_72" data-name="Group 72" transform="translate(-154 -2921)">
    <circle id="Ellipse_21" data-name="Ellipse 21" cx="23.5" cy="23.5" r="23.5" transform="translate(154 2921)" fill="#2858c7"/>
    <g id="caress" transform="translate(163 2887.654)">
      <g id="Group_49" data-name="Group 49" transform="translate(0.599 41.787)">
        <g id="Group_48" data-name="Group 48" transform="translate(0 0)">
          <path id="Path_56" data-name="Path 56" d="M38.415,54.516a2.578,2.578,0,0,0-.908-1.758l-7.173-6.1A7.617,7.617,0,0,0,25.4,44.84H18.7a2.5,2.5,0,0,1-1.713-.676l-2.541-2.376L13.119,43.2,15.66,45.58a4.433,4.433,0,0,0,3.038,1.2h6.7a5.677,5.677,0,0,1,3.676,1.352l7.176,6.107.008.007a.628.628,0,0,1,.221.43.545.545,0,0,1-.124.4.569.569,0,0,1-.79.064l-4.461-3.714a5.771,5.771,0,0,0-3.686-1.333H22.148a2.406,2.406,0,1,0,0,4.812h5.063a.467.467,0,1,1,0,.934H18.806a3.541,3.541,0,0,1-3.063-1.773L15.1,52.945a10.394,10.394,0,0,0-1.806-2.313L10.661,48.1,9.316,49.5l2.633,2.534a8.451,8.451,0,0,1,1.469,1.882l.644,1.121a5.485,5.485,0,0,0,4.744,2.747h8.405a2.406,2.406,0,1,0,0-4.812H22.148a.467.467,0,1,1,0-.934h5.274a3.828,3.828,0,0,1,2.445.885l4.461,3.714a2.518,2.518,0,0,0,3.5-.286A2.464,2.464,0,0,0,38.415,54.516Z" transform="translate(-9.316 -41.787)" fill="#fff"/>
        </g>
      </g>
      <g id="Group_51" data-name="Group 51" transform="translate(0 58.969)">
        <g id="Group_50" data-name="Group 50">
          <path id="Path_57" data-name="Path 57" d="M14.391,311.269A47.142,47.142,0,0,0,0,317.681l1.107,1.592A45.2,45.2,0,0,1,14.9,313.14a68.838,68.838,0,0,1,18.035-2.305V308.9A70.776,70.776,0,0,0,14.391,311.269Z" transform="translate(0 -308.896)" fill="#fff"/>
        </g>
      </g>
    </g>
  </g>
</svg>
