<svg xmlns="http://www.w3.org/2000/svg" width="47" height="47" viewBox="0 0 47 47">
  <g id="Group_67" data-name="Group 67" transform="translate(-154 -2599)">
    <circle id="Ellipse_11" data-name="Ellipse 11" cx="23.5" cy="23.5" r="23.5" transform="translate(154 2599)" fill="#2858c7"/>
    <path id="Female_2_" d="M32.5,11.249A11.25,11.25,0,1,0,20.739,22.486v5.267h-3.58a.511.511,0,0,0,0,1.023h3.58v3.44a.511.511,0,1,0,1.023,0v-3.44h3.58a.511.511,0,0,0,0-1.023h-3.58V22.486A11.263,11.263,0,0,0,32.5,11.249Zm-21.477,0A10.227,10.227,0,1,1,21.25,21.477,10.238,10.238,0,0,1,11.023,11.249Z" transform="translate(156.5 2606)" fill="#fff" stroke="#fff" stroke-width="1"/>
  </g>
</svg>
